<svg width="53" height="51" viewBox="0 0 53 51" fill="none" xmlns="http://www.w3.org/2000/svg">
<path d="M42.258 0C36.2269 0 33.5152 5.11311 33.5152 8.74286C33.5152 12.4877 37.056 16.0286 40.8009 16.0286C43.5986 16.0286 45.8542 14.1634 46.2885 11.4925C46.6265 9.4146 45.6517 6.88063 42.7199 5.90289C41.9506 5.64643 41.1316 6.06171 40.8766 6.8238C40.6216 7.58734 41.034 8.41209 41.7976 8.66709C43.5082 9.23683 43.4966 10.506 43.4106 11.0247C43.2489 12.0316 42.3615 13.1143 40.8009 13.1143C38.6764 13.1143 36.4294 10.8674 36.4294 8.74286C36.4294 6.84129 37.8545 2.91429 42.258 2.91429C46.4794 2.91429 49.5437 6.59066 49.5437 11.6571V33.5143C49.5437 38.725 47.5737 41.7981 43.2999 43.0498C43.4602 41.5679 43.5811 39.8106 43.6496 37.724C44.5297 33.115 43.7997 27.3331 41.0617 21.8571C38.3456 16.4264 32.4267 13.2032 26.4568 13.5587C26.1187 6.10251 22.0343 0 13.7082 0C5.00761 0 4.63167 10.2 0.260244 16.61C-1.70981 19.498 8.16961 26.8945 13.7068 26.8945L13.7694 26.8916C14.2823 26.9338 14.9366 26.8785 15.754 26.7021C16.5846 26.5535 17.4283 26.3116 18.2589 25.9896C22.2383 24.7729 24.6353 24.6913 26.008 25.3441C24.9719 30.2517 20.4402 34.4192 17.4866 39.3429C13.1152 46.6286 18.9437 51 21.858 51C26.2294 51 26.2294 46.6286 24.7723 46.6286C21.858 46.6286 20.9371 42.1071 21.858 39.3429C22.8168 36.4665 25.6597 34.2123 27.4986 30.5228C27.1154 32.9708 26.2294 35.7627 26.2294 37.8857C26.2294 44.5419 27.9343 46.6286 34.9723 46.6286C35.2462 46.6286 35.4969 46.579 35.7606 46.5528C35.5042 46.598 35.2448 46.6286 34.9723 46.6286C28.1325 46.6286 26.958 47.9342 26.958 49.5429C26.958 50.7217 27.6866 51 29.1437 51H39.3437C40.2923 51 41.8617 50.9956 42.838 46.1608C49.2261 44.8159 52.458 40.5785 52.458 33.5143V11.6571C52.458 5.01111 48.072 0 42.258 0Z" fill="#574AE2"/>
<path d="M16.2875 9.90714C16.2875 6.85005 13.8074 4.37145 10.7503 4.37145C7.69034 4.37145 5.21174 6.85005 5.21174 9.90714C5.21174 10.3078 5.25983 10.6969 5.33997 11.0743C3.83474 11.6251 2.43151 12.7427 1.47126 14.5715C1.09968 15.2796 0.698969 15.9645 0.258912 16.61C-0.777116 18.1313 1.46834 20.8998 4.63617 23.1817C7.48634 25.2348 13.3732 23.9394 13.3732 16.0286C13.3732 15.606 13.3164 15.2111 13.2319 14.8323C15.0373 13.9201 16.2875 12.0695 16.2875 9.90714ZM20.1402 8.01431C20.1402 10.831 19.7686 13.1143 22.5853 13.1143C25.4034 13.1143 27.6853 10.831 27.6853 8.01431C27.6853 5.19765 25.4034 2.91431 22.5853 2.91431C19.7686 2.91431 20.1402 5.19765 20.1402 8.01431Z" fill="#EBF2FA"/>
<path d="M10.8339 10.7404C10.8339 12.0518 10.1272 13.1141 9.25287 13.1141C8.37858 13.1141 7.67041 12.0518 7.67041 10.7404C7.67041 9.43042 8.37712 8.36816 9.25287 8.36816C10.1272 8.36816 10.8339 9.43042 10.8339 10.7404Z" fill="#292F33"/>
<path d="M5.82857 16.0287C5.82857 16.8331 2.66657 18.943 1.33329 18.943C0 18.943 0 18.2902 0 17.4859H1.33329C2.91574 17.4859 5.82857 15.2244 5.82857 16.0287Z" fill="#292F33"/>
</svg>
