<svg width="62" height="43" viewBox="0 0 62 43" fill="none" xmlns="http://www.w3.org/2000/svg">
<path d="M60.0438 6.73352C59.6916 5.432 59.0046 4.24546 58.0512 3.29205C57.0978 2.33864 55.9112 1.65164 54.6097 1.29945C49.8451 0 30.6683 0 30.6683 0C30.6683 0 11.4916 0.0393773 6.72692 1.33883C5.42541 1.69101 4.23887 2.37802 3.28546 3.33143C2.33205 4.28484 1.64504 5.47138 1.29286 6.77289C-0.148351 15.239 -0.707508 28.139 1.33224 36.2665C1.68442 37.568 2.37143 38.7545 3.32483 39.7079C4.27824 40.6614 5.46479 41.3484 6.7663 41.7006C11.531 43 30.7077 43 30.7077 43C30.7077 43 49.8844 43 54.6491 41.7006C55.9506 41.3484 57.1371 40.6614 58.0906 39.7079C59.044 38.7545 59.731 37.568 60.0831 36.2665C61.6031 27.7886 62.0717 14.8964 60.0438 6.73352Z" fill="#574AE2"/>
<path d="M24.5649 30.7142L40.4734 21.4999L24.5649 12.2856V30.7142Z" fill="#EBF2FA"/>
</svg>
