<svg width="51" height="50" viewBox="0 0 51 50" fill="none" xmlns="http://www.w3.org/2000/svg">
<path d="M46.586 32.219C47.0916 30.0272 46.9235 27.6827 45.9499 25.3493C45.0082 23.0923 43.3845 21.3075 41.4067 20.1089C41.8484 18.4533 41.7317 16.6713 40.9567 14.9004C39.7886 12.2337 37.2621 10.4545 34.4121 9.95305C34.7579 9.15859 34.869 8.16273 34.4621 6.94325C33.0731 2.77647 27.5174 5.55432 23.3506 0C19.9617 2.03339 19.2255 5.0557 19.3533 7.62104C15.9907 8.19328 14.0754 8.92108 14.0754 8.92108V8.92386C12.1864 9.68777 10.8503 11.5392 10.8503 13.7045C10.8503 14.9254 11.292 16.0324 12.0003 16.9157L11.0392 17.2741L11.0406 17.2783C7.80438 18.488 5.5196 21.4117 5.5196 24.8326C5.5196 26.2868 5.93628 27.648 6.65852 28.83C2.73758 30.5925 0 34.4176 0 38.8886C0 45.0249 5.12653 50 11.4503 50C15.9907 50 20.5603 49.0236 24.6882 47.6874C27.8035 49.1319 32.5981 50 39.8164 50C45.4415 50 50.0014 45.4402 50.0014 39.815C50.0014 36.7927 48.6777 34.0857 46.586 32.219Z" fill="#574AE2"/>
<path d="M18.7503 27.7764C21.435 27.7764 23.6114 24.9781 23.6114 21.5264C23.6114 18.0746 21.435 15.2764 18.7503 15.2764C16.0656 15.2764 13.8892 18.0746 13.8892 21.5264C13.8892 24.9781 16.0656 27.7764 18.7503 27.7764Z" fill="#F5F8FA"/>
<path d="M32.6389 27.7764C35.3237 27.7764 37.5001 24.9781 37.5001 21.5264C37.5001 18.0746 35.3237 15.2764 32.6389 15.2764C29.9542 15.2764 27.7778 18.0746 27.7778 21.5264C27.7778 24.9781 29.9542 27.7764 32.6389 27.7764Z" fill="#F5F8FA"/>
<path d="M19.4448 24.9986C20.9789 24.9986 22.2225 23.4441 22.2225 21.5264C22.2225 19.6088 20.9789 18.0542 19.4448 18.0542C17.9106 18.0542 16.667 19.6088 16.667 21.5264C16.667 23.4441 17.9106 24.9986 19.4448 24.9986Z" fill="#292F33"/>
<path d="M31.9448 24.9986C33.4789 24.9986 34.7225 23.4441 34.7225 21.5264C34.7225 19.6088 33.4789 18.0542 31.9448 18.0542C30.4106 18.0542 29.167 19.6088 29.167 21.5264C29.167 23.4441 30.4106 24.9986 31.9448 24.9986Z" fill="#292F33"/>
<path d="M13.1221 34.5758C12.7804 33.8911 13.1262 33.3328 13.8901 33.3328H38.8901C39.654 33.3328 39.9998 33.8911 39.6582 34.5758C39.6582 34.5758 36.1123 41.6661 26.3901 41.6661C16.6679 41.6661 13.1221 34.5758 13.1221 34.5758Z" fill="#292F33"/>
<path d="M26.3898 36.1108C22.5412 36.1108 19.2273 37.3914 17.6509 39.2442C19.7231 40.5706 22.5745 41.6664 26.3898 41.6664C30.205 41.6664 33.0578 40.5706 35.1287 39.2442C33.5523 37.3914 30.2384 36.1108 26.3898 36.1108Z" fill="white"/>
</svg>
