<svg width="112" height="109" viewBox="0 0 112 109" fill="none" xmlns="http://www.w3.org/2000/svg">
<path d="M89.9693 0C77.1286 0 71.355 10.8862 71.355 18.6143C71.355 26.5874 78.8938 34.1262 86.8669 34.1262C92.8235 34.1262 97.626 30.1551 98.5505 24.4685C99.2702 20.0445 97.1947 14.6494 90.9528 12.5677C89.3147 12.0217 87.5712 12.9059 87.0282 14.5284C86.4853 16.1541 87.3633 17.91 88.989 18.4529C92.6311 19.666 92.6063 22.3682 92.4233 23.4726C92.0789 25.6163 90.1896 27.9214 86.8669 27.9214C82.3437 27.9214 77.5598 23.1375 77.5598 18.6143C77.5598 14.5657 80.5939 6.20476 89.9693 6.20476C98.9569 6.20476 105.481 14.0321 105.481 24.819V71.3547C105.481 82.4488 101.287 88.9917 92.1875 91.6567C92.5288 88.5016 92.7863 84.7601 92.9321 80.3175C94.8059 70.5047 93.2516 58.1944 87.4222 46.5357C81.6394 34.9731 69.0376 28.1107 56.3271 28.8676C55.6074 12.9928 46.9114 0 29.1844 0C10.6601 0 9.85967 21.7167 0.552537 35.364C-3.64188 41.5129 17.3922 57.2606 29.1813 57.2606L29.3147 57.2544C30.4067 57.3444 31.7997 57.2265 33.5401 56.8511C35.3085 56.5347 37.1048 56.0197 38.8731 55.334C47.3457 52.7435 52.4491 52.5698 55.3716 53.9597C53.1658 64.4085 43.5174 73.2813 37.2289 83.7642C27.9217 99.2761 40.3312 108.583 46.536 108.583C55.8431 108.583 55.8431 99.2761 52.7408 99.2761C46.536 99.2761 44.5753 89.6494 46.536 83.7642C48.5774 77.6401 54.6301 72.8408 58.5453 64.9855C57.7294 70.1975 55.8431 76.1417 55.8431 80.6618C55.8431 94.8335 59.4729 99.2761 74.4574 99.2761C75.0407 99.2761 75.5743 99.1706 76.1358 99.1148C75.5898 99.211 75.0376 99.2761 74.4574 99.2761C59.8948 99.2761 57.3943 102.056 57.3943 105.481C57.3943 107.991 58.9455 108.583 62.0479 108.583H83.7645C85.7842 108.583 89.1255 108.574 91.204 98.2803C104.805 95.4168 111.686 86.3951 111.686 71.3547V24.819C111.686 10.6691 102.348 0 89.9693 0Z" fill="url(#paint0_linear)"/>
<path d="M34.6779 21.0929C34.6779 14.5841 29.3977 9.30697 22.8889 9.30697C16.3739 9.30697 11.0968 14.5841 11.0968 21.0929C11.0968 21.9461 11.1991 22.7744 11.3698 23.5779C8.16502 24.7506 5.17743 27.1301 3.13296 31.0236C2.34185 32.5314 1.4887 33.9895 0.551782 35.3639C-1.65401 38.6027 3.12676 44.4973 9.87133 49.3556C15.9396 53.7268 28.4732 50.9688 28.4732 34.126C28.4732 33.2263 28.3522 32.3856 28.1723 31.5789C32.0161 29.6369 34.6779 25.6968 34.6779 21.0929ZM42.8806 17.0629C42.8806 23.0598 42.0895 27.9212 48.0864 27.9212C54.0864 27.9212 58.9448 23.0598 58.9448 17.0629C58.9448 11.066 54.0864 6.20459 48.0864 6.20459C42.0895 6.20459 42.8806 11.066 42.8806 17.0629Z" fill="#EBF2FA"/>
<path d="M23.0668 22.8673C23.0668 25.6595 21.5622 27.9211 19.7007 27.9211C17.8393 27.9211 16.3315 25.6595 16.3315 22.8673C16.3315 20.0783 17.8362 17.8167 19.7007 17.8167C21.5622 17.8167 23.0668 20.0783 23.0668 22.8673Z" fill="#292F33"/>
<path d="M12.4095 34.1266C12.4095 35.8391 5.67735 40.3314 2.83868 40.3314C0 40.3314 0 38.9415 0 37.229H2.83868C6.20786 37.229 12.4095 32.4141 12.4095 34.1266Z" fill="#292F33"/>
<defs>
<linearGradient id="paint0_linear" x1="1.69151e-06" y1="-1.2617e-06" x2="112" y2="109" gradientUnits="userSpaceOnUse">
<stop stop-color="#574AE2"/>
<stop offset="1" stop-color="#574AE2" stop-opacity="0.21"/>
</linearGradient>
</defs>
</svg>
