<svg width="156" height="110" viewBox="0 0 156 110" fill="none" xmlns="http://www.w3.org/2000/svg">
<path d="M152.483 17.1C151.589 13.7948 149.844 10.7815 147.423 8.36028C145.002 5.93906 141.988 4.19439 138.683 3.3C126.583 0 77.8833 0 77.8833 0C77.8833 0 29.1833 0.0999999 17.0833 3.4C13.778 4.29439 10.7647 6.03906 8.34353 8.46027C5.92232 10.8815 4.17764 13.8948 3.28326 17.2C-0.376742 38.7 -1.79674 71.46 3.38326 92.1C4.27764 95.4052 6.02232 98.4185 8.44353 100.84C10.8647 103.261 13.878 105.006 17.1833 105.9C29.2833 109.2 77.9833 109.2 77.9833 109.2C77.9833 109.2 126.683 109.2 138.783 105.9C142.089 105.006 145.102 103.261 147.523 100.84C149.944 98.4185 151.689 95.4052 152.583 92.1C156.443 70.57 157.633 37.83 152.483 17.1Z" fill="url(#paint0_linear)"/>
<path d="M62.3828 78.0002L102.783 54.6002L62.3828 31.2002V78.0002Z" fill="#EBF2FA"/>
<defs>
<linearGradient id="paint0_linear" x1="0.183107" y1="-0.399905" x2="156.183" y2="109.6" gradientUnits="userSpaceOnUse">
<stop stop-color="#574AE2"/>
<stop offset="1" stop-color="#574AE2" stop-opacity="0.21"/>
</linearGradient>
</defs>
</svg>
