<svg width="110" height="110" viewBox="0 0 110 110" fill="none" xmlns="http://www.w3.org/2000/svg">
<path d="M102.486 70.8797C103.599 66.0581 103.229 60.9003 101.087 55.7669C99.0153 50.8017 95.4433 46.8753 91.0922 44.2383C92.0639 40.5961 91.8072 36.6758 90.1022 32.78C87.5325 26.9133 81.9744 22.9992 75.7044 21.8961C76.4653 20.1483 76.7097 17.9575 75.8144 15.2747C72.7589 6.10806 60.5367 12.2192 51.37 0C43.9144 4.47333 42.295 11.1222 42.5761 16.7658C35.1786 18.0247 30.965 19.6258 30.965 19.6258V19.6319C26.8094 21.3125 23.87 25.3856 23.87 30.1492C23.87 32.835 24.8417 35.2703 26.4 37.2136L24.2856 38.0019L24.2886 38.0111C17.1692 40.6725 12.1428 47.1044 12.1428 54.6303C12.1428 57.8294 13.0594 60.8239 14.6483 63.4242C6.0225 67.3017 0 75.7167 0 85.5525C0 99.0519 11.2781 109.997 25.19 109.997C35.1786 109.997 45.2314 107.849 54.3125 104.909C61.1661 108.087 71.7139 109.997 87.5936 109.997C99.9686 109.997 110 99.9656 110 87.5906C110 80.9417 107.088 74.9864 102.486 70.8797Z" fill="url(#paint0_linear)"/>
<path d="M41.2501 61.1082C47.1565 61.1082 51.9446 54.9521 51.9446 47.3582C51.9446 39.7642 47.1565 33.6082 41.2501 33.6082C35.3437 33.6082 30.5557 39.7642 30.5557 47.3582C30.5557 54.9521 35.3437 61.1082 41.2501 61.1082Z" fill="#F5F8FA"/>
<path d="M71.8048 61.1082C77.7112 61.1082 82.4992 54.9521 82.4992 47.3582C82.4992 39.7642 77.7112 33.6082 71.8048 33.6082C65.8984 33.6082 61.1104 39.7642 61.1104 47.3582C61.1104 54.9521 65.8984 61.1082 71.8048 61.1082Z" fill="#F5F8FA"/>
<path d="M42.7771 54.9968C46.1522 54.9968 48.8882 51.5767 48.8882 47.3579C48.8882 43.139 46.1522 39.719 42.7771 39.719C39.4021 39.719 36.666 43.139 36.666 47.3579C36.666 51.5767 39.4021 54.9968 42.7771 54.9968Z" fill="#292F33"/>
<path d="M70.2781 54.9968C73.6532 54.9968 76.3892 51.5767 76.3892 47.3579C76.3892 43.139 73.6532 39.719 70.2781 39.719C66.903 39.719 64.167 43.139 64.167 47.3579C64.167 51.5767 66.903 54.9968 70.2781 54.9968Z" fill="#292F33"/>
<path d="M28.8681 76.065C28.1165 74.5587 28.8773 73.3303 30.5578 73.3303H85.5578C87.2384 73.3303 87.9992 74.5587 87.2476 76.065C87.2476 76.065 79.4467 91.6637 58.0578 91.6637C36.669 91.6637 28.8681 76.065 28.8681 76.065Z" fill="#292F33"/>
<path d="M58.0566 79.4417C49.5897 79.4417 42.2991 82.2589 38.8311 86.335C43.3899 89.253 49.663 91.6639 58.0566 91.6639C66.4502 91.6639 72.7263 89.253 77.2822 86.335C73.8141 82.2589 66.5236 79.4417 58.0566 79.4417Z" fill="white"/>
<defs>
<linearGradient id="paint0_linear" x1="0" y1="0" x2="109.997" y2="109.997" gradientUnits="userSpaceOnUse">
<stop stop-color="#574AE2"/>
<stop offset="1" stop-color="#574AE2" stop-opacity="0.21"/>
</linearGradient>
</defs>
</svg>
