<svg width="300" height="300" viewBox="0 0 300 300" fill="none" xmlns="http://www.w3.org/2000/svg">
<rect width="300" height="300" fill="#574AE2"/>
<path d="M208.173 97.5276C197.394 92.6548 185.834 89.0648 173.748 87.0086C173.528 86.9689 173.308 87.0681 173.195 87.2665C171.708 89.8714 170.061 93.2697 168.908 95.9407C155.909 94.0235 142.976 94.0235 130.243 95.9407C129.09 93.2103 127.383 89.8714 125.89 87.2665C125.776 87.0747 125.557 86.9756 125.336 87.0086C113.257 89.0582 101.697 92.6483 90.9112 97.5276C90.8179 97.5673 90.7378 97.6334 90.6847 97.7193C68.7588 129.99 62.7524 161.468 65.6989 192.556C65.7123 192.708 65.7989 192.853 65.9189 192.946C80.385 203.412 94.3979 209.765 108.151 213.977C108.371 214.043 108.604 213.964 108.744 213.785C111.997 209.408 114.897 204.794 117.383 199.941C117.53 199.656 117.39 199.319 117.09 199.207C112.49 197.488 108.111 195.392 103.897 193.012C103.564 192.82 103.537 192.35 103.844 192.126C104.731 191.471 105.617 190.79 106.464 190.103C106.617 189.977 106.831 189.95 107.011 190.03C134.689 202.479 164.655 202.479 192.007 190.03C192.187 189.944 192.401 189.97 192.56 190.096C193.407 190.784 194.294 191.471 195.187 192.126C195.494 192.35 195.474 192.82 195.14 193.012C190.927 195.438 186.547 197.488 181.941 199.2C181.641 199.313 181.508 199.656 181.654 199.941C184.194 204.787 187.094 209.402 190.287 213.779C190.421 213.964 190.661 214.043 190.881 213.977C204.7 209.765 218.713 203.412 233.179 192.946C233.306 192.853 233.386 192.714 233.399 192.562C236.925 156.622 227.492 125.402 208.393 97.7259C208.346 97.6334 208.267 97.5673 208.173 97.5276ZM121.517 173.627C113.184 173.627 106.317 166.089 106.317 156.833C106.317 147.577 113.05 140.04 121.517 140.04C130.05 140.04 136.849 147.643 136.716 156.833C136.716 166.089 129.983 173.627 121.517 173.627ZM177.714 173.627C169.381 173.627 162.515 166.089 162.515 156.833C162.515 147.577 169.248 140.04 177.714 140.04C186.247 140.04 193.047 147.643 192.914 156.833C192.914 166.089 186.247 173.627 177.714 173.627Z" fill="#EBF2FA"/>
</svg>
