<svg width="38" height="29" viewBox="0 0 38 29" fill="none" xmlns="http://www.w3.org/2000/svg">
<path d="M32.1686 2.58242C29.7466 1.48759 27.1494 0.680965 24.4338 0.218979C24.3844 0.210063 24.335 0.232345 24.3095 0.27691C23.9755 0.862188 23.6055 1.62573 23.3464 2.22587C20.4256 1.79509 17.5199 1.79509 14.659 2.22587C14.3999 1.61239 14.0164 0.862188 13.6809 0.27691C13.6554 0.233832 13.606 0.21155 13.5566 0.218979C10.8425 0.679488 8.2453 1.48611 5.82181 2.58242C5.80083 2.59133 5.78285 2.6062 5.77092 2.62549C0.844537 9.87623 -0.505005 16.9488 0.157035 23.9336C0.160031 23.9678 0.179502 24.0004 0.206464 24.0212C3.45675 26.3727 6.6052 27.8003 9.69519 28.7466C9.74465 28.7615 9.79704 28.7436 9.82851 28.7035C10.5595 27.7201 11.211 26.6833 11.7697 25.5929C11.8026 25.529 11.7712 25.4532 11.7038 25.428C10.6703 25.0418 9.6862 24.5708 8.73957 24.0361C8.6647 23.993 8.6587 23.8875 8.72758 23.837C8.92679 23.6899 9.12605 23.5369 9.31626 23.3824C9.35068 23.3542 9.39863 23.3483 9.43909 23.3661C15.658 26.1633 22.3908 26.1633 28.5363 23.3661C28.5768 23.3468 28.6248 23.3527 28.6607 23.381C28.8509 23.5354 29.0501 23.6899 29.2508 23.837C29.3197 23.8875 29.3152 23.993 29.2404 24.0361C28.2937 24.5812 27.3096 25.0418 26.2746 25.4265C26.2073 25.4518 26.1773 25.529 26.2103 25.5929C26.7809 26.6817 27.4325 27.7186 28.1499 28.702C28.1799 28.7436 28.2338 28.7615 28.2832 28.7466C31.3882 27.8003 34.5366 26.3727 37.7869 24.0212C37.8154 24.0004 37.8334 23.9692 37.8364 23.9351C38.6287 15.8598 36.5093 8.84531 32.218 2.62697C32.2075 2.6062 32.1896 2.59133 32.1686 2.58242ZM12.6984 19.6806C10.826 19.6806 9.28329 17.9871 9.28329 15.9074C9.28329 13.8277 10.7961 12.1342 12.6984 12.1342C14.6155 12.1342 16.1434 13.8425 16.1134 15.9074C16.1134 17.9871 14.6006 19.6806 12.6984 19.6806ZM25.325 19.6806C23.4527 19.6806 21.91 17.9871 21.91 15.9074C21.91 13.8277 23.4228 12.1342 25.325 12.1342C27.2423 12.1342 28.77 13.8425 28.7401 15.9074C28.7401 17.9871 27.2423 19.6806 25.325 19.6806Z" fill="#EBF2FA"/>
</svg>
